<?xml version="1.0" standalone="no"?>
<!DOCTYPE svg PUBLIC "-//W3C//DTD SVG 20010904//EN"
 "http://www.w3.org/TR/2001/REC-SVG-20010904/DTD/svg10.dtd">
<svg version="1.0" xmlns="http://www.w3.org/2000/svg"
 width="1280.000000pt" height="1280.000000pt" viewBox="0 0 1280.000000 1280.000000"
 preserveAspectRatio="xMidYMid meet">
<metadata>
Created by potrace 1.15, written by Peter Selinger 2001-2017
</metadata>
<g transform="translate(0.000000,1280.000000) scale(0.100000,-0.100000)"
fill="#ff9800" stroke="none">
<path d="M6259 12663 c-185 -189 -247 -286 -275 -430 -25 -131 -31 -123 90
-123 l104 0 7 68 c5 46 16 83 35 117 34 59 160 195 180 195 22 0 145 -134 179
-194 20 -35 31 -72 36 -118 l7 -68 104 0 c121 0 115 -8 90 123 -15 76 -55 167
-109 247 -30 45 -295 320 -307 320 -4 0 -67 -62 -141 -137z"/>
<path d="M5823 12055 c-112 -25 -239 -107 -325 -211 -117 -142 -168 -243 -168
-335 l0 -39 105 0 104 0 12 42 c19 74 48 117 129 198 98 96 161 130 268 141
42 4 246 8 452 8 206 0 410 -4 452 -8 107 -11 170 -45 268 -141 81 -81 110
-124 129 -198 l12 -42 104 0 105 0 0 39 c0 69 -35 156 -96 242 -109 152 -222
246 -353 293 -54 20 -79 21 -596 23 -427 1 -553 -1 -602 -12z"/>
<path d="M5970 11325 l0 -495 105 0 105 0 0 495 0 495 -105 0 -105 0 0 -495z"/>
<path d="M6620 11325 l0 -495 105 0 105 0 0 495 0 495 -105 0 -105 0 0 -495z"/>
<path d="M5188 11415 c-122 -25 -247 -108 -350 -235 -108 -134 -148 -216 -148
-307 l0 -43 104 0 105 0 17 59 c20 74 96 168 192 241 104 78 118 81 495 87
l327 6 0 103 0 104 -337 -1 c-239 -1 -358 -5 -405 -14z"/>
<path d="M6220 11325 l0 -105 180 0 180 0 0 105 0 105 -180 0 -180 0 0 -105z"/>
<path d="M6870 11326 l0 -103 328 -6 c376 -6 390 -9 494 -87 96 -73 172 -167
192 -241 l17 -59 105 0 104 0 0 43 c0 91 -40 175 -148 307 -67 81 -147 149
-223 190 -98 52 -170 60 -540 60 l-329 0 0 -104z"/>
<path d="M5330 10680 l0 -500 105 0 105 0 0 500 0 500 -105 0 -105 0 0 -500z"/>
<path d="M7260 10680 l0 -500 105 0 105 0 0 500 0 500 -105 0 -105 0 0 -500z"/>
<path d="M1874 10916 c-4 -9 -4 -110 -1 -224 4 -173 8 -219 27 -282 26 -91 67
-170 119 -230 l40 -45 75 74 75 74 -44 49 c-58 65 -75 124 -75 267 l0 111 111
0 c143 0 202 -17 267 -75 l49 -44 74 75 74 75 -45 40 c-25 22 -76 55 -115 74
-118 58 -167 67 -407 72 -197 5 -218 4 -224 -11z"/>
<path d="M10495 10919 c-119 -18 -235 -68 -315 -138 l-45 -40 74 -75 74 -75
49 44 c65 58 124 75 267 75 l111 0 0 -111 c0 -143 -17 -202 -75 -267 l-44 -49
75 -74 75 -74 40 45 c53 61 93 140 120 235 21 71 23 103 23 295 l1 215 -185 1
c-102 1 -212 -2 -245 -7z"/>
<path d="M2979 10875 c-85 -17 -169 -60 -244 -125 -86 -75 -631 -620 -690
-691 -125 -149 -160 -318 -116 -572 20 -111 55 -189 109 -240 l23 -21 73 73
73 73 -34 66 c-33 65 -34 70 -34 188 0 125 9 182 41 245 23 43 228 266 416
449 310 303 342 325 481 339 130 12 230 0 295 -36 l55 -31 74 74 74 75 -39 35
c-63 54 -131 82 -243 99 -122 18 -224 18 -314 0z"/>
<path d="M3889 10876 c-147 -31 -208 -77 -519 -390 l-195 -196 75 -75 74 -74
200 197 c293 289 316 305 462 322 121 13 231 -1 298 -39 l52 -30 75 75 74 75
-40 34 c-54 46 -111 73 -192 91 -99 21 -284 26 -364 10z"/>
<path d="M8598 10875 c-103 -17 -144 -32 -205 -72 -86 -57 -86 -54 -3 -138
l74 -74 52 30 c67 38 177 52 298 39 146 -17 169 -33 462 -322 l200 -197 74 74
75 75 -195 196 c-234 235 -325 316 -397 350 -109 51 -275 66 -435 39z"/>
<path d="M9495 10874 c-100 -16 -171 -46 -231 -98 l-39 -35 74 -75 74 -74 55
31 c44 25 71 32 136 37 114 9 226 -4 289 -33 74 -34 404 -347 671 -636 119
-130 137 -178 137 -365 0 -118 -1 -123 -34 -188 l-34 -66 73 -73 73 -73 23 21
c54 51 89 129 109 240 44 254 9 423 -116 572 -59 71 -604 616 -690 691 -145
126 -316 163 -570 124z"/>
<path d="M4605 10783 c-23 -4 -85 -59 -272 -246 -134 -133 -243 -244 -243
-247 0 -3 32 -38 71 -78 l72 -72 218 215 218 215 308 2 308 3 3 108 3 107
-328 -1 c-180 -1 -341 -4 -358 -6z"/>
<path d="M5580 10680 l0 -110 820 0 820 0 0 110 0 110 -820 0 -820 0 0 -110z"/>
<path d="M7512 10683 l3 -108 308 -3 308 -2 218 -215 218 -215 72 72 c39 40
71 75 71 78 0 3 -109 114 -242 247 -218 215 -247 241 -283 246 -22 4 -183 7
-358 7 l-318 0 3 -107z"/>
<path d="M4615 10460 l-75 -75 180 -180 180 -180 -2 255 -3 255 -103 0 -102 0
-75 -75z"/>
<path d="M5972 10173 c4 -347 5 -372 26 -434 27 -81 100 -186 180 -260 58 -54
205 -159 222 -159 17 0 164 105 222 159 80 74 153 179 180 260 21 62 22 87 26
434 l3 367 -105 0 -106 0 -1 -232 c0 -128 -4 -285 -8 -349 -10 -150 -32 -199
-135 -306 l-76 -78 -76 78 c-132 137 -142 182 -143 650 l-1 237 -106 0 -105 0
3 -367z"/>
<path d="M7907 10534 c-4 -4 -7 -120 -7 -258 l0 -251 180 180 180 180 -75 75
-75 75 -97 3 c-54 2 -101 0 -106 -4z"/>
<path d="M2792 10457 l-72 -72 348 -348 c191 -191 352 -347 357 -347 6 0 42
32 80 70 l70 70 -350 350 c-192 193 -352 350 -355 350 -3 0 -38 -33 -78 -73z"/>
<path d="M3702 10457 l-72 -72 350 -350 c192 -192 353 -346 357 -342 4 4 38
37 75 74 l68 68 -348 348 c-191 191 -349 347 -352 347 -3 0 -38 -33 -78 -73z"/>
<path d="M8668 10183 l-348 -348 68 -68 c37 -37 71 -70 75 -74 4 -4 165 150
357 342 l350 350 -72 72 c-40 40 -75 73 -78 73 -3 0 -161 -156 -352 -347z"/>
<path d="M9575 10180 l-350 -350 70 -70 c38 -38 74 -70 80 -70 5 0 166 156
357 347 l348 348 -72 72 c-40 40 -75 73 -78 73 -3 0 -163 -157 -355 -350z"/>
<path d="M4940 10040 c0 -55 -3 -100 -7 -100 -4 0 -39 31 -78 70 l-70 70 -350
-350 -350 -350 75 -75 75 -75 350 350 350 350 498 0 497 0 0 105 0 105 -495 0
-495 0 0 -100z"/>
<path d="M6220 10035 l0 -105 180 0 180 0 0 105 0 105 -180 0 -180 0 0 -105z"/>
<path d="M6870 10035 l0 -105 497 0 498 0 350 -350 350 -350 75 75 75 75 -350
350 -350 350 -70 -70 c-39 -39 -74 -70 -78 -70 -4 0 -7 45 -7 100 l0 100 -495
0 -495 0 0 -105z"/>
<path d="M2340 10005 l-75 -75 353 -352 352 -353 70 70 c38 38 70 74 70 80 0
5 -156 167 -348 358 l-347 347 -75 -75z"/>
<path d="M2840 9955 l-125 -125 75 -75 75 -75 127 127 128 128 -72 72 c-40 40
-75 73 -78 73 -3 0 -61 -56 -130 -125z"/>
<path d="M3295 9500 l-580 -580 70 -70 c38 -38 74 -70 80 -70 5 0 270 260 587
577 l578 578 -72 72 c-40 40 -75 73 -78 73 -3 0 -266 -261 -585 -580z"/>
<path d="M8842 10007 l-72 -72 578 -578 c317 -317 582 -577 587 -577 6 0 42
32 80 70 l70 70 -580 580 c-319 319 -582 580 -585 580 -3 0 -38 -33 -78 -73z"/>
<path d="M9752 10007 l-72 -72 128 -128 127 -127 75 75 75 75 -125 125 c-69
69 -127 125 -130 125 -3 0 -38 -33 -78 -73z"/>
<path d="M10037 9732 c-191 -191 -347 -352 -347 -357 0 -6 32 -42 70 -80 l70
-70 353 353 352 352 -75 75 -75 75 -348 -348z"/>
<path d="M5330 9438 l0 -453 -323 323 -322 322 -75 -75 -75 -75 352 -352 353
-353 63 63 63 62 87 0 87 0 0 495 0 495 -105 0 -105 0 0 -452z"/>
<path d="M7260 9395 l0 -495 87 0 87 0 63 -62 63 -63 353 353 352 352 -75 75
-75 75 -322 -322 -323 -323 0 453 0 452 -105 0 -105 0 0 -495z"/>
<path d="M2269 9383 c-130 -131 -250 -259 -267 -284 -69 -102 -98 -228 -89
-383 12 -180 42 -279 112 -361 l34 -40 76 76 76 76 -31 51 c-27 43 -33 64 -39
138 -8 103 2 225 23 275 24 58 88 132 298 345 l197 200 -72 72 c-40 40 -75 72
-78 72 -3 0 -111 -107 -240 -237z"/>
<path d="M3702 9549 l-74 -71 229 -231 c178 -180 235 -245 257 -288 44 -90 62
-272 30 -303 -31 -32 -213 -14 -303 30 -43 22 -108 79 -288 257 l-232 229 -68
-72 c-37 -40 -69 -75 -71 -79 -1 -4 111 -120 250 -257 283 -280 324 -310 470
-334 121 -21 396 4 430 38 34 34 59 309 38 430 -24 146 -54 187 -334 470 -137
138 -252 252 -255 252 -3 0 -39 -32 -79 -71z"/>
<path d="M8764 9368 c-280 -283 -310 -324 -334 -470 -21 -121 4 -396 38 -430
34 -34 309 -59 430 -38 146 24 187 54 470 334 139 137 251 253 250 257 -2 4
-34 39 -71 79 l-68 72 -232 -229 c-180 -178 -245 -235 -288 -257 -90 -44 -272
-62 -303 -30 -32 31 -14 213 30 303 22 43 79 108 256 287 l229 232 -71 68
c-39 38 -75 70 -79 72 -4 1 -120 -111 -257 -250z"/>
<path d="M10212 9547 l-72 -72 136 -135 c192 -190 329 -344 354 -396 25 -55
37 -169 29 -286 -5 -76 -10 -95 -38 -140 l-32 -51 76 -76 76 -76 34 40 c68 80
99 178 112 352 10 154 -21 291 -89 392 -30 43 -495 521 -508 521 -3 0 -38 -33
-78 -73z"/>
<path d="M5052 9437 l-63 -63 77 -73 77 -72 32 31 c24 24 40 30 73 30 l42 0 0
105 0 105 -88 0 -88 0 -62 -63z"/>
<path d="M5580 9397 l0 -106 43 -11 c79 -20 101 -34 188 -120 68 -66 95 -101
121 -155 l33 -70 3 -337 4 -338 105 0 104 0 -3 378 c-3 364 -4 379 -26 433
-47 118 -149 235 -299 342 -72 53 -133 77 -208 84 l-65 6 0 -106z"/>
<path d="M7097 9489 c-117 -27 -329 -201 -407 -334 -64 -108 -69 -147 -69
-542 l-1 -353 104 0 104 0 4 338 3 337 33 70 c25 53 53 89 120 155 87 85 109
99 190 120 l42 11 0 104 0 105 -42 -1 c-24 -1 -60 -5 -81 -10z"/>
<path d="M7510 9395 l0 -105 42 0 c33 0 49 -6 73 -30 l32 -31 77 72 77 73 -63
63 -62 63 -88 0 -88 0 0 -105z"/>
<path d="M2340 9095 l-75 -75 350 -350 350 -350 73 71 c39 40 72 74 72 78 0 3
-156 163 -348 354 l-347 347 -75 -75z"/>
<path d="M3750 9045 l-125 -125 70 -70 c38 -38 74 -70 80 -70 13 0 245 232
245 245 0 10 -131 145 -140 145 -3 0 -61 -56 -130 -125z"/>
<path d="M4751 9135 c-80 -91 -117 -242 -108 -445 5 -126 30 -214 83 -293 16
-23 137 -152 271 -287 l242 -245 75 74 75 75 -202 205 c-315 320 -322 331
-322 542 0 124 1 128 35 198 l34 71 -69 70 c-38 39 -72 70 -76 70 -4 0 -21
-16 -38 -35z"/>
<path d="M7935 9100 l-69 -70 34 -71 c34 -70 35 -74 35 -198 0 -211 -7 -222
-322 -542 l-202 -205 75 -75 75 -74 242 245 c133 135 255 264 271 287 15 23
39 73 53 110 50 135 38 424 -22 543 -24 48 -81 120 -94 120 -4 0 -38 -31 -76
-70z"/>
<path d="M8847 9102 c-37 -37 -67 -72 -67 -77 0 -13 232 -245 245 -245 6 0 42
32 80 70 l70 70 -125 125 c-69 69 -127 125 -130 125 -3 0 -36 -30 -73 -68z"/>
<path d="M10037 8822 c-191 -191 -347 -351 -347 -355 0 -5 33 -39 73 -77 l72
-69 350 350 350 349 -75 75 -75 75 -348 -348z"/>
<path d="M5190 8665 l-195 -195 75 -75 75 -75 165 165 165 165 228 0 227 0 0
105 0 105 -273 0 -272 0 -195 -195z"/>
<path d="M6220 8756 l0 -105 61 -17 c34 -10 74 -28 90 -42 l29 -24 29 24 c16
14 56 32 90 42 l61 17 0 105 0 104 -33 0 c-18 0 -58 -7 -90 -15 -50 -13 -64
-13 -114 0 -32 8 -72 15 -90 15 l-33 0 0 -104z"/>
<path d="M6870 8755 l0 -105 227 0 228 0 165 -165 165 -165 75 75 75 75 -195
195 -195 195 -272 0 -273 0 0 -105z"/>
<path d="M2263 8468 c-215 -218 -241 -247 -246 -283 -4 -22 -7 -183 -7 -358
l0 -318 108 3 107 3 3 308 2 308 217 220 217 220 -69 69 c-38 39 -74 70 -80
70 -6 0 -119 -109 -252 -242z"/>
<path d="M3067 8362 l-347 -347 70 -70 c38 -38 70 -73 70 -77 0 -5 -45 -8
-100 -8 l-100 0 0 -495 0 -495 105 0 105 0 0 498 0 497 350 350 350 350 -72
72 c-40 40 -75 73 -78 73 -3 0 -162 -156 -353 -348z"/>
<path d="M9302 8637 l-72 -72 350 -350 350 -350 0 -497 0 -498 105 0 105 0 0
495 0 495 -100 0 c-55 0 -100 3 -100 8 0 4 32 39 70 77 l70 70 -347 347 c-191
192 -350 348 -353 348 -3 0 -38 -33 -78 -73z"/>
<path d="M10205 8640 l-69 -69 217 -220 217 -220 2 -308 3 -308 108 -3 107 -3
0 309 c0 170 -3 331 -6 358 -7 48 -11 53 -247 292 -133 133 -246 242 -252 242
-6 0 -42 -31 -80 -70z"/>
<path d="M5465 8590 c-19 -21 -18 -22 28 -68 l47 -47 0 68 0 67 -28 0 c-16 0
-37 -9 -47 -20z"/>
<path d="M7260 8543 l0 -68 47 47 c46 46 47 47 28 68 -10 11 -31 20 -47 20
l-28 0 0 -67z"/>
<path d="M2341 8186 l-73 -73 -5 -101 c-5 -82 -3 -103 8 -107 8 -3 123 -4 257
-3 l242 3 -178 178 -177 177 -74 -74z"/>
<path d="M3242 8188 l-72 -73 322 -322 323 -323 -453 0 -452 0 0 -105 0 -105
495 0 495 0 0 87 0 87 62 63 63 63 -350 350 c-192 193 -352 350 -355 350 -3 0
-38 -33 -78 -72z"/>
<path d="M4746 8218 c-20 -23 -41 -54 -48 -70 -8 -17 -33 -40 -63 -57 -27 -16
-61 -41 -75 -55 l-24 -27 72 -72 72 -72 54 29 c29 16 70 31 92 35 36 6 39 9
45 45 4 22 19 63 35 92 l29 54 -70 70 c-38 38 -73 70 -76 70 -4 0 -24 -19 -43
-42z"/>
<path d="M7935 8190 l-70 -70 29 -54 c16 -29 31 -70 35 -92 6 -36 9 -39 45
-45 22 -4 63 -19 92 -35 l54 -29 72 72 72 72 -24 27 c-14 14 -47 39 -75 55
-30 17 -55 40 -63 57 -13 31 -79 112 -91 112 -3 0 -38 -32 -76 -70z"/>
<path d="M9125 7910 l-350 -350 63 -63 62 -63 0 -87 0 -87 495 0 495 0 0 105
0 105 -452 0 -453 0 323 323 322 322 -73 73 c-40 39 -75 72 -77 72 -3 0 -163
-157 -355 -350z"/>
<path d="M10205 8080 l-180 -180 255 2 255 3 -1 104 -1 103 -74 74 -74 74
-180 -180z"/>
<path d="M5112 7687 l-532 -532 0 -755 0 -754 534 -533 534 -533 751 0 751 0
535 533 535 532 0 755 0 755 -533 533 -532 532 -755 0 -755 0 -533 -533z
m2425 -150 l473 -472 0 -665 0 -665 -473 -472 -472 -473 -665 0 -665 0 -472
473 -473 472 0 665 0 665 473 472 472 473 665 0 665 0 472 -473z"/>
<path d="M5970 7703 l0 -268 -188 188 -187 187 -75 -75 -75 -75 351 -351 c265
-265 354 -348 367 -343 16 6 17 44 17 505 l0 499 -105 0 -105 0 0 -267z"/>
<path d="M6620 7471 c0 -461 1 -499 17 -505 13 -5 102 78 367 343 l351 351
-75 75 -75 75 -187 -187 -188 -188 0 268 0 267 -105 0 -105 0 0 -499z"/>
<path d="M5912 7571 c-10 -6 -10 -10 3 -21 13 -11 15 -9 15 9 0 24 0 24 -18
12z"/>
<path d="M6227 7574 c-4 -4 -7 -54 -7 -111 l0 -103 180 0 181 0 -3 108 -3 107
-171 3 c-93 1 -173 -1 -177 -4z"/>
<path d="M6870 7558 c0 -17 2 -18 15 -8 8 7 15 14 15 15 0 2 -7 5 -15 9 -10 4
-15 -1 -15 -16z"/>
<path d="M5062 7278 l-72 -73 187 -187 188 -188 -268 0 -267 0 0 -105 0 -105
499 0 c460 0 499 1 505 17 5 13 -77 101 -341 365 -191 191 -350 348 -353 348
-3 0 -38 -33 -78 -72z"/>
<path d="M5567 7232 c-64 -64 -117 -122 -117 -127 0 -6 32 -42 70 -80 l70 -70
127 128 128 127 -70 70 c-38 38 -74 70 -80 70 -6 0 -63 -53 -128 -118z"/>
<path d="M7025 7280 l-70 -70 128 -127 127 -128 70 70 c38 38 70 74 70 80 0
13 -232 245 -245 245 -6 0 -42 -32 -80 -70z"/>
<path d="M7307 7002 c-264 -264 -346 -352 -341 -365 6 -16 45 -17 505 -17
l499 0 0 105 0 105 -267 0 -268 0 188 188 187 187 -73 73 c-40 39 -75 72 -77
72 -3 0 -162 -157 -353 -348z"/>
<path d="M6022 6777 l-152 -152 0 -225 0 -225 153 -153 152 -152 225 0 225 0
153 153 152 152 0 225 0 225 -153 153 -152 152 -225 0 -225 0 -153 -153z m605
-149 l93 -93 0 -135 0 -135 -92 -92 -93 -93 -135 0 -135 0 -92 92 -93 93 0
135 0 135 92 92 93 93 135 0 135 0 92 -92z"/>
<path d="M5226 6885 c-4 -10 1 -15 16 -15 17 0 18 2 8 15 -7 8 -14 15 -15 15
-2 0 -5 -7 -9 -15z"/>
<path d="M7550 6885 c-10 -13 -9 -15 8 -15 15 0 20 5 16 15 -4 8 -7 15 -9 15
-1 0 -8 -7 -15 -15z"/>
<path d="M5224 6567 c-2 -7 -3 -87 -2 -177 l3 -165 108 -3 107 -3 0 181 0 180
-105 0 c-77 0 -107 -4 -111 -13z"/>
<path d="M7360 6400 l0 -181 108 3 107 3 0 175 0 175 -107 3 -108 3 0 -181z"/>
<path d="M4830 6075 l0 -105 267 0 268 0 -188 -188 -187 -187 75 -75 75 -75
351 351 c265 265 348 354 343 367 -6 16 -44 17 -505 17 l-499 0 0 -105z"/>
<path d="M6966 6163 c-5 -13 78 -102 343 -367 l351 -351 75 75 75 75 -187 187
-188 188 268 0 267 0 0 105 0 105 -499 0 c-461 0 -499 -1 -505 -17z"/>
<path d="M5226 5915 c4 -8 7 -15 9 -15 1 0 8 7 15 15 10 13 9 15 -8 15 -15 0
-20 -5 -16 -15z"/>
<path d="M7540 5926 c0 -2 6 -9 14 -15 10 -9 15 -8 20 4 4 10 -1 15 -14 15
-11 0 -20 -2 -20 -4z"/>
<path d="M5517 5772 c-37 -37 -67 -72 -67 -77 0 -13 232 -245 245 -245 6 0 42
32 80 70 l70 70 -125 125 c-69 69 -127 125 -130 125 -3 0 -36 -30 -73 -68z"/>
<path d="M5795 5490 l-350 -350 75 -75 75 -75 187 187 188 188 0 -268 0 -267
105 0 105 0 0 499 c0 446 -2 500 -16 505 -9 3 -16 6 -17 6 -1 0 -160 -157
-352 -350z"/>
<path d="M6633 5833 c-10 -4 -13 -114 -13 -504 l0 -499 105 0 105 0 0 267 0
268 188 -188 187 -187 75 75 75 75 -350 350 c-192 193 -352 350 -355 349 -3 0
-11 -3 -17 -6z"/>
<path d="M7080 5715 l-125 -125 70 -70 c38 -38 74 -70 80 -70 13 0 245 232
245 245 0 10 -131 145 -140 145 -3 0 -61 -56 -130 -125z"/>
<path d="M6222 5333 l3 -108 175 0 175 0 3 108 3 107 -181 0 -181 0 3 -107z"/>
<path d="M5911 5246 c-9 -10 -8 -15 4 -20 10 -4 15 1 15 14 0 24 -4 25 -19 6z"/>
<path d="M6870 5240 c0 -13 5 -18 15 -14 12 5 13 10 4 20 -15 19 -19 18 -19
-6z"/>
<path d="M3880 8144 c-93 -17 -181 -58 -226 -105 l-28 -30 72 -71 71 -72 68
34 c67 33 71 34 198 34 215 1 226 -5 545 -321 l206 -203 74 76 75 75 -250 248
c-253 251 -299 288 -404 324 -77 27 -284 32 -401 11z"/>
<path d="M8605 8154 c-170 -36 -194 -53 -485 -341 l-255 -252 75 -75 74 -76
206 203 c319 316 330 322 545 321 127 0 131 -1 198 -34 l68 -34 71 72 72 71
-28 30 c-48 50 -132 88 -235 105 -86 15 -256 20 -306 10z"/>
<path d="M1825 8092 c-113 -39 -306 -202 -374 -317 -74 -123 -75 -128 -79
-537 l-4 -368 105 0 104 0 6 328 c6 376 9 390 87 494 73 96 167 172 240 192
l59 17 3 104 3 105 -50 0 c-27 0 -72 -8 -100 -18z"/>
<path d="M10828 8005 l3 -104 59 -17 c73 -20 167 -96 240 -192 78 -104 81
-118 87 -494 l6 -328 104 0 105 0 -4 368 c-3 338 -5 371 -24 423 -47 130 -154
258 -301 360 -90 62 -157 88 -228 89 l-50 0 3 -105z"/>
<path d="M3362 7747 l-62 -63 0 -87 0 -87 105 0 105 0 0 42 c0 34 6 49 32 75
l32 33 -74 75 -75 75 -63 -63z"/>
<path d="M9300 7735 l-74 -75 32 -33 c26 -26 32 -41 32 -75 l0 -42 105 0 105
0 0 88 0 88 -63 62 -63 62 -74 -75z"/>
<path d="M4132 7607 l-192 -192 0 -273 0 -272 105 0 105 0 0 228 0 227 165
165 165 165 -72 72 c-40 40 -75 73 -78 73 -3 0 -92 -87 -198 -193z"/>
<path d="M8392 7727 l-72 -72 165 -165 165 -165 0 -227 0 -228 105 0 105 0 0
273 0 272 -193 193 c-106 105 -195 192 -197 192 -3 0 -38 -33 -78 -73z"/>
<path d="M1188 7451 c-116 -37 -309 -201 -381 -322 -74 -125 -72 -108 -72
-729 0 -495 2 -561 17 -610 39 -125 144 -253 299 -365 84 -60 171 -95 240 -95
l40 0 -3 107 -3 107 -38 8 c-65 13 -116 47 -197 128 -96 98 -130 161 -141 268
-10 100 -10 804 0 904 11 107 45 170 141 268 81 81 124 110 198 129 l42 12 0
104 0 105 -42 -1 c-24 0 -69 -8 -100 -18z"/>
<path d="M1620 7365 l0 -105 500 0 500 0 0 105 0 105 -500 0 -500 0 0 -105z"/>
<path d="M10180 7365 l0 -105 500 0 500 0 0 105 0 105 -500 0 -500 0 0 -105z"/>
<path d="M11470 7365 l0 -104 42 -12 c74 -19 117 -48 198 -129 100 -102 129
-159 142 -283 5 -50 8 -281 6 -512 -5 -480 -3 -471 -96 -587 -83 -105 -162
-164 -249 -187 l-43 -12 0 -104 0 -105 39 0 c69 0 156 35 240 95 155 112 260
240 299 365 15 49 17 115 17 610 0 497 -2 561 -17 610 -40 128 -141 251 -297
364 -86 61 -173 96 -242 96 l-39 0 0 -105z"/>
<path d="M4207 7332 c-10 -10 -17 -31 -17 -45 0 -27 1 -27 67 -27 l67 0 -44
45 c-24 25 -47 45 -51 45 -3 0 -13 -8 -22 -18z"/>
<path d="M8520 7305 l-44 -45 67 0 c67 0 67 0 67 28 0 24 -25 62 -41 62 -3 0
-25 -20 -49 -45z"/>
<path d="M2010 6400 l0 -820 110 0 110 0 0 820 0 820 -110 0 -110 0 0 -820z"/>
<path d="M3302 7156 c7 -84 39 -150 125 -262 76 -98 139 -155 228 -209 98 -59
150 -65 539 -65 l346 0 0 104 0 104 -337 4 -338 3 -70 33 c-54 26 -89 53 -157
122 -79 82 -89 96 -109 160 l-21 70 -105 0 -106 0 5 -64z"/>
<path d="M9271 7150 c-20 -64 -30 -78 -109 -160 -68 -69 -103 -96 -157 -122
l-70 -33 -337 -3 -338 -4 0 -104 0 -104 346 0 c389 0 441 6 539 65 89 54 152
111 228 209 86 111 116 174 124 260 l6 66 -106 0 -105 0 -21 -70z"/>
<path d="M10570 6400 l0 -820 110 0 110 0 0 820 0 820 -110 0 -110 0 0 -820z"/>
<path d="M559 6815 c-138 -28 -258 -107 -444 -294 l-120 -121 95 -96 c206
-209 329 -291 476 -319 132 -26 124 -32 124 89 l0 104 -67 7 c-89 9 -147 43
-246 143 l-78 79 76 71 c101 95 162 128 248 137 l67 7 0 104 0 104 -32 -1
c-18 0 -63 -7 -99 -14z"/>
<path d="M980 6725 l0 -105 495 0 495 0 0 105 0 105 -495 0 -495 0 0 -105z"/>
<path d="M2267 6823 c-4 -3 -7 -51 -7 -105 l0 -98 233 0 c127 0 286 -5 353 -9
150 -11 193 -31 302 -137 l77 -74 -78 -76 c-107 -103 -156 -125 -306 -135 -64
-4 -221 -8 -349 -8 l-233 -1 3 -102 3 -103 332 -3 c366 -3 430 4 530 55 109
54 243 187 322 318 l33 55 -33 55 c-18 30 -60 87 -94 127 -114 136 -236 215
-366 237 -71 12 -711 16 -722 4z"/>
<path d="M9795 6816 c-33 -7 -77 -20 -99 -29 -60 -26 -157 -100 -218 -165 -53
-58 -158 -205 -158 -222 0 -18 107 -166 163 -226 72 -78 178 -149 260 -177 58
-20 84 -21 427 -22 l365 0 3 103 3 102 -233 1 c-128 0 -285 4 -349 8 -150 10
-199 32 -306 135 l-78 76 77 74 c109 106 152 126 302 137 67 4 226 9 354 9
l233 0 -3 103 -3 102 -340 2 c-237 1 -358 -3 -400 -11z"/>
<path d="M10830 6725 l0 -105 495 0 495 0 0 105 0 105 -495 0 -495 0 0 -105z"/>
<path d="M12110 6726 l0 -104 68 -7 c85 -8 134 -35 243 -135 l81 -73 -79 -79
c-99 -100 -157 -134 -245 -143 l-68 -7 0 -104 c0 -121 -8 -115 124 -89 147 28
270 110 476 319 l95 96 -120 121 c-191 191 -306 267 -452 295 -131 25 -123 31
-123 -90z"/>
<path d="M1370 6400 l0 -180 105 0 105 0 0 180 0 180 -105 0 -105 0 0 -180z"/>
<path d="M2660 6400 l0 -180 105 0 105 0 0 180 0 180 -105 0 -105 0 0 -180z"/>
<path d="M3940 6547 c0 -18 7 -58 15 -90 13 -50 13 -64 0 -114 -8 -32 -15 -72
-15 -90 l0 -33 104 0 105 0 17 61 c10 34 28 74 41 90 l24 29 -24 32 c-14 18
-33 59 -42 91 l-16 57 -105 0 -104 0 0 -33z"/>
<path d="M8635 6523 c-9 -32 -28 -73 -42 -91 l-24 -32 24 -29 c13 -16 31 -56
41 -90 l17 -61 105 0 104 0 0 33 c0 18 -7 58 -15 90 -13 50 -13 64 0 114 8 32
15 72 15 90 l0 33 -104 0 -105 0 -16 -57z"/>
<path d="M9930 6400 l0 -180 105 0 105 0 0 180 0 180 -105 0 -105 0 0 -180z"/>
<path d="M11220 6400 l0 -180 105 0 105 0 0 180 0 180 -105 0 -105 0 0 -180z"/>
<path d="M980 6075 l0 -105 495 0 495 0 0 105 0 105 -495 0 -495 0 0 -105z"/>
<path d="M3769 6162 c-125 -33 -235 -117 -348 -264 -84 -112 -112 -171 -119
-255 l-5 -63 106 0 106 0 11 43 c20 79 34 101 120 188 66 68 101 95 155 121
l70 33 338 3 337 4 0 104 0 104 -352 -1 c-300 0 -363 -3 -419 -17z"/>
<path d="M8260 6076 l0 -104 338 -4 337 -3 70 -33 c54 -26 89 -53 155 -121 86
-87 100 -109 120 -188 l11 -43 106 0 106 0 -6 66 c-8 86 -38 149 -125 261 -79
101 -131 149 -223 205 -102 62 -150 68 -543 68 l-346 0 0 -104z"/>
<path d="M10830 6075 l0 -105 495 0 495 0 0 105 0 105 -495 0 -495 0 0 -105z"/>
<path d="M1370 5603 c0 -181 5 -357 10 -393 20 -128 102 -256 238 -369 129
-108 217 -151 310 -151 l42 0 0 104 0 105 -59 17 c-74 20 -168 96 -241 192
-78 104 -81 118 -87 495 l-6 327 -103 0 -104 0 0 -327z"/>
<path d="M2660 5435 l0 -495 100 0 c55 0 100 -3 100 -7 0 -4 -31 -39 -70 -78
l-70 -70 350 -350 350 -350 75 75 75 75 -350 350 -350 350 0 498 0 497 -105 0
-105 0 0 -495z"/>
<path d="M3940 5657 l0 -272 195 -195 195 -195 75 75 75 75 -165 165 -165 165
0 228 0 227 -105 0 -105 0 0 -273z"/>
<path d="M8650 5703 l0 -228 -165 -165 -165 -165 75 -75 75 -75 195 195 195
195 0 272 0 273 -105 0 -105 0 0 -227z"/>
<path d="M9930 5433 l0 -498 -350 -350 -350 -350 75 -75 75 -75 350 350 350
350 -70 70 c-39 39 -70 74 -70 78 0 4 45 7 100 7 l100 0 0 495 0 495 -105 0
-105 0 0 -497z"/>
<path d="M11217 5603 c-6 -377 -9 -391 -87 -495 -73 -96 -167 -172 -241 -192
l-59 -17 0 -105 0 -104 43 0 c92 0 180 43 309 151 136 113 218 241 238 369 5
36 10 212 10 393 l0 327 -104 0 -103 0 -6 -327z"/>
<path d="M1620 5435 l0 -105 500 0 500 0 0 105 0 105 -500 0 -500 0 0 -105z"/>
<path d="M2910 5435 l0 -105 452 0 453 0 -318 -318 c-174 -174 -317 -322 -317
-327 0 -6 32 -42 70 -80 l70 -70 352 353 353 352 -63 63 -62 63 0 87 0 87
-495 0 -495 0 0 -105z"/>
<path d="M4190 5512 c0 -16 9 -37 20 -47 21 -19 22 -18 68 28 l47 47 -68 0
-67 0 0 -28z"/>
<path d="M8522 5493 c46 -46 47 -47 68 -28 11 10 20 31 20 47 l0 28 -67 0 -68
0 47 -47z"/>
<path d="M8900 5453 l0 -87 -62 -63 -63 -63 353 -352 352 -353 70 70 c38 38
70 74 70 80 0 5 -143 153 -317 327 l-318 318 453 0 452 0 0 105 0 105 -495 0
-495 0 0 -87z"/>
<path d="M10180 5435 l0 -105 500 0 500 0 0 105 0 105 -500 0 -500 0 0 -105z"/>
<path d="M4645 5249 c-77 -78 -189 -186 -249 -240 -143 -129 -173 -142 -352
-143 -130 -1 -132 -1 -203 34 l-72 34 -71 -72 -72 -71 29 -31 c77 -80 254
-126 455 -117 127 5 214 30 293 83 23 16 152 138 287 271 l245 242 -75 76 -75
75 -140 -141z"/>
<path d="M7939 5314 l-74 -75 245 -242 c135 -133 264 -255 287 -271 79 -53
166 -78 293 -83 201 -9 378 37 455 117 l29 31 -72 71 -71 72 -72 -34 c-70 -34
-74 -35 -198 -35 -212 1 -223 7 -542 322 l-205 202 -75 -75z"/>
<path d="M2010 4973 c0 -175 3 -336 7 -358 5 -36 31 -65 246 -282 133 -134
244 -243 247 -243 4 0 39 32 78 72 l72 71 -215 218 -215 218 0 311 0 310 -110
0 -110 0 0 -317z"/>
<path d="M3300 5203 l0 -87 57 -58 c32 -32 61 -58 65 -58 4 0 40 32 80 70 l72
70 -32 33 c-26 26 -32 41 -32 75 l0 42 -105 0 -105 0 0 -87z"/>
<path d="M9290 5248 c0 -34 -6 -49 -32 -75 l-31 -32 69 -71 c38 -38 73 -70 79
-70 5 0 35 26 67 57 l58 57 0 88 0 88 -105 0 -105 0 0 -42z"/>
<path d="M10570 4980 l0 -311 -215 -218 -215 -218 71 -71 c39 -40 74 -72 78
-72 4 0 115 109 248 243 235 237 240 243 246 291 4 27 7 188 7 357 l0 309
-110 0 -110 0 0 -310z"/>
<path d="M4605 4860 l-69 -69 25 -27 c13 -14 47 -39 74 -55 35 -20 57 -41 73
-73 13 -24 37 -57 53 -72 l30 -28 72 72 72 72 -29 54 c-16 29 -31 70 -35 92
-6 36 -9 39 -48 46 -24 4 -62 18 -86 32 -24 14 -48 26 -53 26 -5 0 -41 -31
-79 -70z"/>
<path d="M4988 4683 c-139 -142 -257 -269 -273 -297 -49 -84 -66 -151 -72
-276 -9 -204 35 -377 117 -455 l31 -29 71 72 72 71 -34 72 c-34 70 -35 74 -35
198 0 211 7 222 322 542 l202 205 -72 72 c-40 40 -75 72 -78 72 -3 0 -116
-111 -251 -247z"/>
<path d="M7482 4857 l-72 -72 141 -140 c78 -77 186 -189 240 -249 130 -143
142 -174 143 -352 1 -130 1 -132 -34 -203 l-34 -72 72 -71 71 -72 31 29 c82
78 126 251 117 455 -6 125 -23 192 -72 276 -24 43 -508 544 -525 544 -3 0 -38
-33 -78 -73z"/>
<path d="M8063 4904 c-24 -14 -62 -28 -85 -32 -40 -7 -43 -10 -49 -46 -4 -22
-19 -63 -35 -92 l-29 -54 72 -72 72 -72 27 24 c14 14 39 48 55 75 20 35 41 57
73 73 24 13 56 37 72 53 l28 29 -69 70 c-38 39 -74 70 -80 70 -5 0 -29 -12
-52 -26z"/>
<path d="M2263 4794 l5 -107 74 -73 73 -74 180 180 180 180 -259 0 -259 0 6
-106z"/>
<path d="M10205 4720 l180 -180 73 74 74 73 5 107 6 106 -259 0 -259 0 180
-180z"/>
<path d="M5968 4203 l-3 -338 -32 -68 c-25 -52 -54 -90 -121 -156 -87 -86
-109 -100 -189 -121 l-43 -11 0 -106 0 -106 66 6 c86 8 149 38 260 124 98 76
155 139 209 228 59 98 65 150 65 539 l0 346 -104 0 -104 0 -4 -337z"/>
<path d="M6620 4194 c0 -389 6 -441 65 -539 54 -89 111 -152 209 -228 111 -86
174 -116 260 -124 l66 -6 0 106 0 106 -42 11 c-80 20 -102 34 -189 120 -68 66
-95 101 -121 155 l-33 70 -3 338 -4 337 -104 0 -104 0 0 -346z"/>
<path d="M2022 4443 c-70 -89 -98 -184 -109 -363 -4 -78 -1 -125 11 -183 32
-157 72 -211 390 -527 l196 -195 75 75 74 74 -197 200 c-211 215 -274 288
-298 345 -21 50 -31 172 -23 274 5 70 12 95 37 139 l31 54 -72 72 c-40 40 -75
72 -79 72 -3 0 -20 -17 -36 -37z"/>
<path d="M2615 4130 l-350 -350 75 -75 75 -75 347 347 c192 191 348 353 348
358 0 10 -131 145 -140 145 -3 0 -163 -157 -355 -350z"/>
<path d="M5070 4405 l-75 -75 195 -195 195 -195 272 0 273 0 0 105 0 105 -227
0 -228 0 -165 165 -165 165 -75 -75z"/>
<path d="M7490 4315 l-165 -165 -227 0 -228 0 0 -105 0 -105 273 0 272 0 195
195 195 195 -75 75 -75 75 -165 -165z"/>
<path d="M9757 4412 c-37 -37 -67 -72 -67 -77 0 -6 156 -167 348 -358 l347
-347 75 75 75 75 -350 350 c-192 193 -352 350 -355 350 -3 0 -36 -30 -73 -68z"/>
<path d="M10662 4407 l-72 -72 26 -43 c38 -63 44 -95 44 -222 1 -140 -16 -204
-72 -279 -22 -29 -132 -146 -244 -260 l-203 -207 75 -75 74 -74 196 195 c321
319 360 373 391 533 26 137 2 365 -48 461 -24 46 -77 116 -88 116 -3 0 -39
-33 -79 -73z"/>
<path d="M3873 4366 c-126 -29 -168 -60 -441 -330 -139 -138 -251 -253 -250
-257 2 -4 34 -40 72 -79 l68 -71 232 229 c257 253 288 276 417 294 88 12 168
6 180 -13 11 -18 11 -97 -1 -178 -17 -118 -43 -155 -292 -407 l-227 -230 75
-75 75 -74 253 255 c282 285 312 326 336 472 21 121 -4 396 -38 430 -36 36
-347 59 -459 34z"/>
<path d="M8589 4365 c-136 -23 -131 -18 -154 -156 -19 -117 -19 -244 0 -332
27 -130 56 -169 332 -447 l252 -255 75 74 75 75 -227 230 c-249 252 -275 289
-292 407 -12 81 -12 160 -1 178 12 19 92 25 180 13 129 -18 160 -41 417 -294
l232 -229 68 71 c38 39 70 75 72 79 1 4 -111 119 -250 257 -276 273 -316 302
-445 329 -82 18 -231 18 -334 0z"/>
<path d="M5490 4275 c-43 -44 -43 -45 -25 -65 10 -11 31 -20 47 -20 28 0 28 0
28 65 0 36 -1 65 -3 65 -2 0 -23 -20 -47 -45z"/>
<path d="M7260 4257 l0 -67 28 0 c16 0 37 9 47 20 19 21 18 22 -28 68 l-47 47
0 -68z"/>
<path d="M6365 4206 c-16 -13 -56 -31 -87 -40 l-58 -17 0 -104 0 -105 33 0
c18 0 58 7 90 15 50 13 64 13 114 0 32 -8 72 -15 90 -15 l33 0 0 105 0 104
-68 21 c-38 11 -77 29 -87 40 -22 25 -23 25 -60 -4z"/>
<path d="M2790 3955 l-75 -75 583 -582 582 -583 70 70 c38 38 70 74 70 80 0 5
-260 270 -578 588 l-577 577 -75 -75z"/>
<path d="M3700 3955 l-75 -75 128 -127 127 -128 70 70 c38 38 70 74 70 80 0 6
-55 65 -123 133 l-122 122 -75 -75z"/>
<path d="M8902 3907 c-67 -67 -122 -127 -122 -132 0 -6 32 -42 70 -80 l70 -70
128 128 127 127 -75 75 -75 75 -123 -123z"/>
<path d="M9357 3452 c-317 -317 -577 -582 -577 -587 0 -6 32 -42 70 -80 l70
-70 583 583 582 582 -75 75 -75 75 -578 -578z"/>
<path d="M4885 3670 l-350 -350 70 -70 c38 -38 74 -70 80 -70 5 0 153 143 327
317 l318 318 0 -453 0 -452 105 0 105 0 0 495 0 495 -88 0 -88 0 -59 60 c-33
33 -62 60 -65 60 -3 0 -163 -157 -355 -350z"/>
<path d="M7495 3960 l-59 -60 -88 0 -88 0 0 -495 0 -495 105 0 105 0 0 452 0
453 318 -318 c174 -174 322 -317 327 -317 6 0 42 32 80 70 l70 70 -350 350
c-192 193 -352 350 -355 350 -3 0 -32 -27 -65 -60z"/>
<path d="M2026 3539 c-56 -66 -78 -118 -97 -227 -33 -190 -19 -342 41 -463 28
-55 85 -117 423 -456 339 -338 401 -395 456 -423 73 -36 184 -60 279 -60 70 0
223 22 280 39 40 12 121 63 147 91 18 20 18 22 -54 94 l-74 74 -66 -34 c-64
-34 -69 -35 -186 -35 -124 -1 -182 9 -247 42 -35 18 -354 314 -464 430 -28 30
-99 105 -158 168 -152 161 -167 198 -167 395 0 118 1 123 34 188 l34 66 -71
71 c-39 39 -74 71 -78 71 -3 0 -18 -14 -32 -31z"/>
<path d="M2615 3220 l-350 -350 75 -75 75 -75 347 347 c192 191 348 353 348
358 0 10 -131 145 -140 145 -3 0 -163 -157 -355 -350z"/>
<path d="M4160 3495 l-75 -75 350 -350 350 -350 70 70 c39 39 74 70 78 70 4 0
7 -45 7 -100 l0 -100 495 0 495 0 0 105 0 105 -497 0 -498 0 -350 350 -350
350 -75 -75z"/>
<path d="M5062 3497 l-72 -73 63 -62 63 -62 87 0 87 0 0 105 0 105 -43 0 c-35
0 -49 6 -72 30 -16 17 -31 30 -35 30 -3 0 -38 -33 -78 -73z"/>
<path d="M7625 3540 c-23 -24 -37 -30 -72 -30 l-43 0 0 -105 0 -105 87 0 87 0
63 62 63 62 -72 73 c-40 40 -75 73 -78 73 -4 0 -19 -13 -35 -30z"/>
<path d="M8215 3220 l-350 -350 -497 0 -498 0 0 -105 0 -105 495 0 495 0 0
100 c0 55 3 100 7 100 4 0 39 -31 78 -70 l70 -70 350 350 350 350 -75 75 -75
75 -350 -350z"/>
<path d="M9757 3502 c-37 -37 -67 -72 -67 -77 0 -6 156 -167 348 -358 l347
-347 75 75 75 75 -350 350 c-192 193 -352 350 -355 350 -3 0 -36 -30 -73 -68z"/>
<path d="M10664 3499 l-71 -71 34 -66 c33 -65 34 -70 34 -188 0 -196 -17 -236
-164 -391 -56 -59 -127 -134 -157 -167 -106 -114 -431 -416 -468 -435 -65 -33
-123 -43 -247 -42 -117 0 -122 1 -186 35 l-66 34 -74 -75 -74 -74 39 -35 c63
-54 131 -82 243 -99 128 -19 210 -19 306 -1 151 29 161 37 594 469 338 339
395 401 423 456 37 74 60 184 60 284 -1 110 -33 279 -64 331 -29 49 -74 106
-84 106 -4 0 -39 -32 -78 -71z"/>
<path d="M6315 3429 c-161 -108 -277 -244 -318 -374 -21 -67 -22 -86 -22 -430
l0 -360 103 -3 102 -3 1 238 c1 468 11 513 143 650 l76 78 76 -78 c103 -107
125 -156 135 -306 4 -64 8 -221 8 -349 l1 -233 103 3 102 3 0 360 c0 344 -1
363 -22 430 -27 86 -97 189 -181 266 -58 54 -205 159 -222 159 -5 0 -43 -23
-85 -51z"/>
<path d="M2790 3045 l-75 -75 128 -128 127 -127 75 75 75 75 -128 128 -127
127 -75 -75z"/>
<path d="M9807 2992 l-127 -127 75 -75 75 -75 128 128 127 127 -75 75 -75 75
-128 -128z"/>
<path d="M3067 2762 l-347 -347 75 -75 75 -75 352 353 353 352 -70 70 c-38 38
-74 70 -80 70 -5 0 -167 -156 -358 -348z"/>
<path d="M3977 2762 l-347 -347 75 -75 75 -75 352 352 352 352 -69 70 c-38 39
-73 71 -79 71 -6 0 -168 -156 -359 -348z"/>
<path d="M8385 3039 l-69 -70 352 -352 352 -352 75 75 75 75 -347 347 c-191
192 -353 348 -359 348 -6 0 -41 -32 -79 -71z"/>
<path d="M9295 3040 l-70 -70 353 -352 352 -353 75 75 75 75 -347 347 c-191
192 -353 348 -358 348 -6 0 -42 -32 -80 -70z"/>
<path d="M6220 2765 l0 -105 180 0 180 0 0 105 0 105 -180 0 -180 0 0 -105z"/>
<path d="M4717 2592 l-177 -177 74 -74 74 -74 101 -4 c79 -4 102 -2 106 9 3 7
4 122 3 256 l-3 242 -178 -178z"/>
<path d="M7902 2520 l3 -255 103 0 102 0 75 75 75 75 -180 180 -180 180 2
-255z"/>
<path d="M2009 2608 c-53 -68 -84 -130 -111 -225 -19 -69 -22 -102 -22 -293
l-1 -215 215 1 c172 0 228 4 280 18 90 24 196 77 250 125 l45 40 -74 75 -74
75 -49 -44 c-65 -58 -124 -75 -267 -75 l-111 0 0 111 c0 143 17 202 75 267
l44 49 -72 71 c-40 40 -76 72 -80 72 -3 0 -25 -23 -48 -52z"/>
<path d="M3250 2585 l-75 -75 195 -196 c319 -321 373 -360 533 -391 136 -26
360 -3 460 47 24 12 61 37 82 55 l40 34 -74 75 -75 75 -52 -30 c-67 -38 -177
-52 -298 -39 -146 17 -169 33 -462 322 l-200 197 -74 -74z"/>
<path d="M4157 2592 c-37 -37 -67 -72 -67 -78 0 -6 109 -118 243 -251 217
-215 246 -241 282 -246 22 -4 183 -7 358 -7 l318 0 -3 108 -3 107 -308 3 -308
2 -218 215 c-120 118 -220 215 -222 215 -3 0 -35 -30 -72 -68z"/>
<path d="M8348 2445 l-218 -215 -307 -2 -308 -3 -3 -107 -3 -108 318 0 c175 0
336 3 358 7 36 5 65 31 283 246 133 133 242 246 242 252 0 10 -131 145 -140
145 -3 -1 -103 -97 -222 -215z"/>
<path d="M9350 2534 c-188 -189 -355 -340 -405 -363 -107 -50 -334 -46 -429 8
l-52 30 -75 -75 -74 -75 40 -34 c21 -18 58 -43 82 -55 100 -50 324 -73 460
-47 160 31 214 70 533 391 l195 196 -75 75 -75 75 -125 -126z"/>
<path d="M10663 2588 l-72 -73 44 -48 c58 -63 75 -123 75 -266 l0 -111 -111 0
c-143 0 -202 17 -267 75 l-49 44 -74 -75 -74 -75 45 -40 c54 -48 160 -101 250
-125 52 -14 108 -18 280 -18 l215 -1 -1 215 c0 233 -12 308 -68 419 -26 51
-102 151 -114 151 -4 0 -40 -33 -79 -72z"/>
<path d="M5330 2120 l0 -500 105 0 105 0 0 500 0 500 -105 0 -105 0 0 -500z"/>
<path d="M7260 2120 l0 -500 105 0 105 0 0 500 0 500 -105 0 -105 0 0 -500z"/>
<path d="M5580 2120 l0 -110 820 0 820 0 0 110 0 110 -820 0 -820 0 0 -110z"/>
<path d="M4690 1929 c0 -95 41 -180 151 -311 71 -85 144 -147 219 -187 99 -53
171 -61 541 -61 l329 0 0 105 0 105 -237 1 c-317 0 -449 10 -504 37 -113 55
-247 199 -273 292 l-17 59 -104 3 -105 3 0 -46z"/>
<path d="M5974 1971 c-2 -2 -4 -226 -4 -498 l0 -493 105 0 105 0 0 494 0 495
-101 3 c-55 2 -103 1 -105 -1z"/>
<path d="M6718 1972 l-98 -3 0 -494 0 -495 105 0 105 0 0 494 c0 272 -3 496
-7 498 -5 2 -52 2 -105 0z"/>
<path d="M8003 1972 l-102 -3 -17 -58 c-26 -94 -160 -238 -273 -293 -55 -27
-187 -37 -503 -37 l-238 -1 0 -105 0 -105 329 0 c370 0 442 8 541 61 106 57
208 157 301 297 50 76 73 150 67 212 l-3 35 -102 -3z"/>
<path d="M6220 1475 l0 -105 180 0 180 0 0 105 0 105 -180 0 -180 0 0 -105z"/>
<path d="M5330 1291 c0 -69 35 -156 95 -240 110 -153 241 -261 365 -299 49
-15 115 -17 610 -17 495 0 561 2 610 17 124 38 255 146 365 299 60 84 95 171
95 240 l0 40 -107 -3 -107 -3 -8 -38 c-17 -82 -89 -176 -197 -257 -116 -87
-98 -85 -651 -85 -553 0 -535 -2 -651 85 -107 80 -174 167 -198 258 l-12 42
-104 0 -105 0 0 -39z"/>
<path d="M5970 666 c0 -13 7 -58 15 -100 28 -147 110 -270 319 -476 l96 -95
96 95 c209 206 291 329 319 476 26 132 32 124 -89 124 l-104 0 -7 -67 c-9 -89
-43 -147 -139 -243 l-76 -74 -76 74 c-96 96 -130 154 -139 243 l-7 67 -104 0
c-103 0 -104 0 -104 -24z"/>
</g>
</svg>
